<?xml version="1.0" encoding="UTF-8" standalone="no"?>
<!DOCTYPE svg PUBLIC "-//W3C//DTD SVG 1.1//EN"
 "http://www.w3.org/Graphics/SVG/1.1/DTD/svg11.dtd">
<!-- Generated by graphviz version 2.40.1 (20161225.0304)
 -->
<!-- Title: G Pages: 1 -->
<svg width="624pt" height="420pt"
 viewBox="0.00 0.00 624.00 420.00" xmlns="http://www.w3.org/2000/svg" xmlns:xlink="http://www.w3.org/1999/xlink">
<g id="graph0" class="graph" transform="scale(1 1) rotate(0) translate(4 416)">
<title>G</title>
<polygon fill="#ffffff" stroke="transparent" points="-4,4 -4,-416 620.0045,-416 620.0045,4 -4,4"/>
<!-- A0 -->
<g id="node1" class="node">
<title>A0</title>
<polygon fill="#333388" stroke="#000000" points="314.4671,-412 214.1949,-412 210.1949,-408 210.1949,-376 310.4671,-376 314.4671,-380 314.4671,-412"/>
<polyline fill="none" stroke="#000000" points="310.4671,-408 210.1949,-408 "/>
<polyline fill="none" stroke="#000000" points="310.4671,-408 310.4671,-376 "/>
<polyline fill="none" stroke="#000000" points="310.4671,-408 314.4671,-412 "/>
<text text-anchor="middle" x="262.331" y="-391" font-family="Helvetica,sans-Serif" font-size="10.00" fill="#ffffff">storch.tojanke.de</text>
</g>
<!-- A1 -->
<g id="node2" class="node">
<title>A1</title>
<polygon fill="#33bbff" stroke="#000000" points="124.4058,-336 10.2562,-336 6.2562,-332 6.2562,-300 120.4058,-300 124.4058,-304 124.4058,-336"/>
<polyline fill="none" stroke="#000000" points="120.4058,-332 6.2562,-332 "/>
<polyline fill="none" stroke="#000000" points="120.4058,-332 120.4058,-300 "/>
<polyline fill="none" stroke="#000000" points="120.4058,-332 124.4058,-336 "/>
<text text-anchor="middle" x="65.331" y="-321" font-family="Helvetica,sans-Serif" font-size="10.00" fill="#000000">Datenbank Frames /</text>
<text text-anchor="middle" x="65.331" y="-309" font-family="Helvetica,sans-Serif" font-size="10.00" fill="#000000">30m</text>
</g>
<!-- A0&#45;&gt;A1 -->
<g id="edge1" class="edge">
<title>A0&#45;&gt;A1</title>
<path fill="none" stroke="#000000" d="M215.6447,-375.9891C184.3551,-363.9179 143.3139,-348.0848 112.0231,-336.0132"/>
</g>
<!-- A2 -->
<g id="node3" class="node">
<title>A2</title>
<polygon fill="#33bbff" stroke="#000000" points="252.0274,-336 146.6346,-336 142.6346,-332 142.6346,-300 248.0274,-300 252.0274,-304 252.0274,-336"/>
<polyline fill="none" stroke="#000000" points="248.0274,-332 142.6346,-332 "/>
<polyline fill="none" stroke="#000000" points="248.0274,-332 248.0274,-300 "/>
<polyline fill="none" stroke="#000000" points="248.0274,-332 252.0274,-336 "/>
<text text-anchor="middle" x="197.331" y="-315" font-family="Helvetica,sans-Serif" font-size="10.00" fill="#000000">Datenbank Videos</text>
</g>
<!-- A0&#45;&gt;A2 -->
<g id="edge2" class="edge">
<title>A0&#45;&gt;A2</title>
<path fill="none" stroke="#000000" d="M246.9269,-375.9891C236.6405,-363.9618 223.1598,-348.1999 212.8498,-336.145"/>
</g>
<!-- A3 -->
<g id="node4" class="node">
<title>A3</title>
<polygon fill="#33bbff" stroke="#000000" points="386.1222,-340 274.5398,-340 270.5398,-336 270.5398,-296 382.1222,-296 386.1222,-300 386.1222,-340"/>
<polyline fill="none" stroke="#000000" points="382.1222,-336 270.5398,-336 "/>
<polyline fill="none" stroke="#000000" points="382.1222,-336 382.1222,-296 "/>
<polyline fill="none" stroke="#000000" points="382.1222,-336 386.1222,-340 "/>
<text text-anchor="middle" x="328.331" y="-327" font-family="Helvetica,sans-Serif" font-size="10.00" fill="#000000">Datenbank Video</text>
<text text-anchor="middle" x="328.331" y="-315" font-family="Helvetica,sans-Serif" font-size="10.00" fill="#000000">Anfragen (starttime,</text>
<text text-anchor="middle" x="328.331" y="-303" font-family="Helvetica,sans-Serif" font-size="10.00" fill="#000000">stoptime)</text>
</g>
<!-- A0&#45;&gt;A3 -->
<g id="edge3" class="edge">
<title>A0&#45;&gt;A3</title>
<path fill="none" stroke="#000000" d="M277.9721,-375.9891C287.2732,-365.2787 299.1463,-351.6066 309.0276,-340.2282"/>
</g>
<!-- A4 -->
<g id="node5" class="node">
<title>A4</title>
<polygon fill="#33bbff" stroke="#000000" points="512.3081,-340 408.3539,-340 404.3539,-336 404.3539,-296 508.3081,-296 512.3081,-300 512.3081,-340"/>
<polyline fill="none" stroke="#000000" points="508.3081,-336 404.3539,-336 "/>
<polyline fill="none" stroke="#000000" points="508.3081,-336 508.3081,-296 "/>
<polyline fill="none" stroke="#000000" points="508.3081,-336 512.3081,-340 "/>
<text text-anchor="middle" x="458.331" y="-327" font-family="Helvetica,sans-Serif" font-size="10.00" fill="#000000">Datenbank Status</text>
<text text-anchor="middle" x="458.331" y="-315" font-family="Helvetica,sans-Serif" font-size="10.00" fill="#000000">(Timestamp,</text>
<text text-anchor="middle" x="458.331" y="-303" font-family="Helvetica,sans-Serif" font-size="10.00" fill="#000000">Temperatur)</text>
</g>
<!-- A0&#45;&gt;A4 -->
<g id="edge4" class="edge">
<title>A0&#45;&gt;A4</title>
<path fill="none" stroke="#000000" d="M308.7803,-375.9891C337.5338,-364.8397 374.5642,-350.481 404.5828,-338.8411"/>
</g>
<!-- A5 -->
<g id="node6" class="node">
<title>A5</title>
<polygon fill="#ffbb33" stroke="#000000" points="305.6737,-260 222.9883,-260 218.9883,-256 218.9883,-224 301.6737,-224 305.6737,-228 305.6737,-260"/>
<polyline fill="none" stroke="#000000" points="301.6737,-256 218.9883,-256 "/>
<polyline fill="none" stroke="#000000" points="301.6737,-256 301.6737,-224 "/>
<polyline fill="none" stroke="#000000" points="301.6737,-256 305.6737,-260 "/>
<text text-anchor="middle" x="262.331" y="-239" font-family="Helvetica,sans-Serif" font-size="10.00" fill="#000000">Sync Service</text>
</g>
<!-- A1&#45;&gt;A5 -->
<g id="edge5" class="edge">
<title>A1&#45;&gt;A5</title>
<path fill="none" stroke="#000000" d="M112.0173,-299.9891C144.4447,-287.479 187.3458,-270.9283 219.0128,-258.7116"/>
</g>
<!-- A2&#45;&gt;A5 -->
<g id="edge6" class="edge">
<title>A2&#45;&gt;A5</title>
<path fill="none" stroke="#000000" d="M212.7351,-299.9891C223.0215,-287.9618 236.5022,-272.1999 246.8122,-260.145"/>
</g>
<!-- A3&#45;&gt;A5 -->
<g id="edge7" class="edge">
<title>A3&#45;&gt;A5</title>
<path fill="none" stroke="#000000" d="M308.8858,-295.6086C299.1516,-284.3995 287.5129,-270.9974 278.3078,-260.3975"/>
</g>
<!-- A4&#45;&gt;A5 -->
<g id="edge8" class="edge">
<title>A4&#45;&gt;A5</title>
<path fill="none" stroke="#000000" d="M404.5139,-297.1321C373.4621,-285.0917 334.9254,-270.1488 305.8079,-258.8584"/>
</g>
<!-- A6 -->
<g id="node7" class="node">
<title>A6</title>
<polygon fill="#33ffbb" stroke="#000000" points="124.4935,-188 4.1685,-188 .1685,-184 .1685,-144 120.4935,-144 124.4935,-148 124.4935,-188"/>
<polyline fill="none" stroke="#000000" points="120.4935,-184 .1685,-184 "/>
<polyline fill="none" stroke="#000000" points="120.4935,-184 120.4935,-144 "/>
<polyline fill="none" stroke="#000000" points="120.4935,-184 124.4935,-188 "/>
<text text-anchor="middle" x="62.331" y="-175" font-family="Helvetica,sans-Serif" font-size="10.00" fill="#000000">Datenbank Frames</text>
<text text-anchor="middle" x="62.331" y="-163" font-family="Helvetica,sans-Serif" font-size="10.00" fill="#000000">(Number, Timestamp,</text>
<text text-anchor="middle" x="62.331" y="-151" font-family="Helvetica,sans-Serif" font-size="10.00" fill="#000000">Frame)</text>
</g>
<!-- A5&#45;&gt;A6 -->
<g id="edge9" class="edge">
<title>A5&#45;&gt;A6</title>
<path fill="none" stroke="#000000" d="M218.934,-225.5091C190.0976,-214.5513 151.898,-200.0355 120.4458,-188.0836"/>
</g>
<!-- A7 -->
<g id="node8" class="node">
<title>A7</title>
<polygon fill="#33ffbb" stroke="#000000" points="252.0274,-184 146.6346,-184 142.6346,-180 142.6346,-148 248.0274,-148 252.0274,-152 252.0274,-184"/>
<polyline fill="none" stroke="#000000" points="248.0274,-180 142.6346,-180 "/>
<polyline fill="none" stroke="#000000" points="248.0274,-180 248.0274,-148 "/>
<polyline fill="none" stroke="#000000" points="248.0274,-180 252.0274,-184 "/>
<text text-anchor="middle" x="197.331" y="-169" font-family="Helvetica,sans-Serif" font-size="10.00" fill="#000000">Datenbank Videos</text>
<text text-anchor="middle" x="197.331" y="-157" font-family="Helvetica,sans-Serif" font-size="10.00" fill="#000000">(Ausgang)</text>
</g>
<!-- A5&#45;&gt;A7 -->
<g id="edge10" class="edge">
<title>A5&#45;&gt;A7</title>
<path fill="none" stroke="#000000" d="M246.9269,-223.9891C236.6405,-211.9618 223.1598,-196.1999 212.8498,-184.145"/>
</g>
<!-- A8 -->
<g id="node9" class="node">
<title>A8</title>
<polygon fill="#33ffbb" stroke="#000000" points="384.5234,-184 274.1386,-184 270.1386,-180 270.1386,-148 380.5234,-148 384.5234,-152 384.5234,-184"/>
<polyline fill="none" stroke="#000000" points="380.5234,-180 270.1386,-180 "/>
<polyline fill="none" stroke="#000000" points="380.5234,-180 380.5234,-148 "/>
<polyline fill="none" stroke="#000000" points="380.5234,-180 384.5234,-184 "/>
<text text-anchor="middle" x="327.331" y="-169" font-family="Helvetica,sans-Serif" font-size="10.00" fill="#000000">Datenbank Video</text>
<text text-anchor="middle" x="327.331" y="-157" font-family="Helvetica,sans-Serif" font-size="10.00" fill="#000000">Anfragen (Eingang)</text>
</g>
<!-- A5&#45;&gt;A8 -->
<g id="edge11" class="edge">
<title>A5&#45;&gt;A8</title>
<path fill="none" stroke="#000000" d="M277.7351,-223.9891C288.0215,-211.9618 301.5022,-196.1999 311.8122,-184.145"/>
</g>
<!-- A9 -->
<g id="node10" class="node">
<title>A9</title>
<polygon fill="#33ffbb" stroke="#000000" points="510.3081,-184 406.3539,-184 402.3539,-180 402.3539,-148 506.3081,-148 510.3081,-152 510.3081,-184"/>
<polyline fill="none" stroke="#000000" points="506.3081,-180 402.3539,-180 "/>
<polyline fill="none" stroke="#000000" points="506.3081,-180 506.3081,-148 "/>
<polyline fill="none" stroke="#000000" points="506.3081,-180 510.3081,-184 "/>
<text text-anchor="middle" x="456.331" y="-169" font-family="Helvetica,sans-Serif" font-size="10.00" fill="#000000">Datenbank Status</text>
<text text-anchor="middle" x="456.331" y="-157" font-family="Helvetica,sans-Serif" font-size="10.00" fill="#000000">(Temperatur, etc)</text>
</g>
<!-- A5&#45;&gt;A9 -->
<g id="edge12" class="edge">
<title>A5&#45;&gt;A9</title>
<path fill="none" stroke="#000000" d="M305.8684,-224.9441C336.9249,-212.7776 378.6146,-196.4456 410.2346,-184.0584"/>
</g>
<!-- A10 -->
<g id="node11" class="node">
<title>A10</title>
<polygon fill="#ffbb33" stroke="#000000" points="131.0593,-108 39.6027,-108 35.6027,-104 35.6027,-72 127.0593,-72 131.0593,-76 131.0593,-108"/>
<polyline fill="none" stroke="#000000" points="127.0593,-104 35.6027,-104 "/>
<polyline fill="none" stroke="#000000" points="127.0593,-104 127.0593,-72 "/>
<polyline fill="none" stroke="#000000" points="127.0593,-104 131.0593,-108 "/>
<text text-anchor="middle" x="83.331" y="-87" font-family="Helvetica,sans-Serif" font-size="10.00" fill="#000000">Picture Service</text>
</g>
<!-- A6&#45;&gt;A10 -->
<g id="edge13" class="edge">
<title>A6&#45;&gt;A10</title>
<path fill="none" stroke="#000000" d="M68.5181,-143.6086C71.6154,-132.3995 75.3186,-118.9974 78.2475,-108.3975"/>
</g>
<!-- A11 -->
<g id="node12" class="node">
<title>A11</title>
<polygon fill="#ffbb33" stroke="#000000" points="250.0106,-108 164.6514,-108 160.6514,-104 160.6514,-72 246.0106,-72 250.0106,-76 250.0106,-108"/>
<polyline fill="none" stroke="#000000" points="246.0106,-104 160.6514,-104 "/>
<polyline fill="none" stroke="#000000" points="246.0106,-104 246.0106,-72 "/>
<polyline fill="none" stroke="#000000" points="246.0106,-104 250.0106,-108 "/>
<text text-anchor="middle" x="205.331" y="-87" font-family="Helvetica,sans-Serif" font-size="10.00" fill="#000000">Video Service</text>
</g>
<!-- A6&#45;&gt;A11 -->
<g id="edge14" class="edge">
<title>A6&#45;&gt;A11</title>
<path fill="none" stroke="#000000" d="M104.0769,-143.8133C125.346,-132.5095 150.8904,-118.9334 171.0008,-108.2454"/>
</g>
<!-- A7&#45;&gt;A11 -->
<g id="edge15" class="edge">
<title>A7&#45;&gt;A11</title>
<path fill="none" stroke="#000000" d="M199.2269,-147.9891C200.4929,-135.9618 202.1521,-120.1999 203.421,-108.145"/>
</g>
<!-- A8&#45;&gt;A11 -->
<g id="edge16" class="edge">
<title>A8&#45;&gt;A11</title>
<path fill="none" stroke="#000000" d="M298.4187,-147.9891C279.1118,-135.9618 253.8098,-120.1999 234.4586,-108.145"/>
</g>
<!-- A12 -->
<g id="node13" class="node">
<title>A12</title>
<polygon fill="#ffbb33" stroke="#000000" points="380.6686,-108 287.9934,-108 283.9934,-104 283.9934,-72 376.6686,-72 380.6686,-76 380.6686,-108"/>
<polyline fill="none" stroke="#000000" points="376.6686,-104 283.9934,-104 "/>
<polyline fill="none" stroke="#000000" points="376.6686,-104 376.6686,-72 "/>
<polyline fill="none" stroke="#000000" points="376.6686,-104 380.6686,-108 "/>
<text text-anchor="middle" x="332.331" y="-87" font-family="Helvetica,sans-Serif" font-size="10.00" fill="#000000">Control Service</text>
</g>
<!-- A9&#45;&gt;A12 -->
<g id="edge17" class="edge">
<title>A9&#45;&gt;A12</title>
<path fill="none" stroke="#000000" d="M426.9447,-147.9891C407.3214,-135.9618 381.6045,-120.1999 361.9361,-108.145"/>
</g>
<!-- A13 -->
<g id="node14" class="node">
<title>A13</title>
<polygon fill="#ffbb33" stroke="#000000" points="496.3989,-108 402.2631,-108 398.2631,-104 398.2631,-72 492.3989,-72 496.3989,-76 496.3989,-108"/>
<polyline fill="none" stroke="#000000" points="492.3989,-104 398.2631,-104 "/>
<polyline fill="none" stroke="#000000" points="492.3989,-104 492.3989,-72 "/>
<polyline fill="none" stroke="#000000" points="492.3989,-104 496.3989,-108 "/>
<text text-anchor="middle" x="447.331" y="-87" font-family="Helvetica,sans-Serif" font-size="10.00" fill="#000000">Heating Service</text>
</g>
<!-- A9&#45;&gt;A13 -->
<g id="edge18" class="edge">
<title>A9&#45;&gt;A13</title>
<path fill="none" stroke="#000000" d="M454.1981,-147.9891C452.7738,-135.9618 450.9073,-120.1999 449.4798,-108.145"/>
</g>
<!-- A14 -->
<g id="node15" class="node">
<title>A14</title>
<polygon fill="#338833" stroke="#000000" points="374.4511,-36 294.2109,-36 290.2109,-32 290.2109,0 370.4511,0 374.4511,-4 374.4511,-36"/>
<polyline fill="none" stroke="#000000" points="370.4511,-32 290.2109,-32 "/>
<polyline fill="none" stroke="#000000" points="370.4511,-32 370.4511,0 "/>
<polyline fill="none" stroke="#000000" points="370.4511,-32 374.4511,-36 "/>
<text text-anchor="middle" x="332.331" y="-15" font-family="Helvetica,sans-Serif" font-size="10.00" fill="#000000">Local Server</text>
</g>
<!-- A10&#45;&gt;A14 -->
<g id="edge19" class="edge">
<title>A10&#45;&gt;A14</title>
<path fill="none" stroke="#000000" d="M131.0461,-76.2029C177.0817,-62.8914 246.0969,-42.9352 290.1653,-30.1925"/>
</g>
<!-- A11&#45;&gt;A14 -->
<g id="edge20" class="edge">
<title>A11&#45;&gt;A14</title>
<path fill="none" stroke="#000000" d="M237.3785,-71.8314C256.6307,-60.9167 281.0434,-47.0764 300.2938,-36.1628"/>
</g>
<!-- A12&#45;&gt;A14 -->
<g id="edge23" class="edge">
<title>A12&#45;&gt;A14</title>
<path fill="none" stroke="#000000" d="M332.331,-71.8314C332.331,-61 332.331,-47.2876 332.331,-36.4133"/>
</g>
<!-- A13&#45;&gt;A14 -->
<g id="edge22" class="edge">
<title>A13&#45;&gt;A14</title>
<path fill="none" stroke="#000000" d="M418.3116,-71.8314C400.8785,-60.9167 378.7725,-47.0764 361.3411,-36.1628"/>
</g>
<!-- A15 -->
<g id="node16" class="node">
<title>A15</title>
<polygon fill="#ffbb33" stroke="#000000" points="616.1786,-108 518.4834,-108 514.4834,-104 514.4834,-72 612.1786,-72 616.1786,-76 616.1786,-108"/>
<polyline fill="none" stroke="#000000" points="612.1786,-104 514.4834,-104 "/>
<polyline fill="none" stroke="#000000" points="612.1786,-104 612.1786,-72 "/>
<polyline fill="none" stroke="#000000" points="612.1786,-104 616.1786,-108 "/>
<text text-anchor="middle" x="565.331" y="-93" font-family="Helvetica,sans-Serif" font-size="10.00" fill="#000000">Cleanup Service</text>
<text text-anchor="middle" x="565.331" y="-81" font-family="Helvetica,sans-Serif" font-size="10.00" fill="#000000">(Cron)</text>
</g>
<!-- A15&#45;&gt;A14 -->
<g id="edge21" class="edge">
<title>A15&#45;&gt;A14</title>
<path fill="none" stroke="#000000" d="M514.4861,-74.2883C472.5748,-61.3371 413.8312,-43.1846 374.4986,-31.0303"/>
</g>
</g>
</svg>
